<?xml version="1.0" standalone="yes"?>

<svg version="1.1" viewBox="0.0 0.0 720.0 540.0" fill="none" stroke="none" stroke-linecap="square" stroke-miterlimit="10" xmlns="http://www.w3.org/2000/svg" xmlns:xlink="http://www.w3.org/1999/xlink"><clipPath id="p.0"><path d="m0 0l720.0 0l0 540.0l-720.0 0l0 -540.0z" clip-rule="nonzero"></path></clipPath><g clip-path="url(#p.0)"><path fill="#000000" fill-opacity="0.0" d="m0 0l720.0 0l0 540.0l-720.0 0z" fill-rule="evenodd"></path><path fill="#cfe2f3" d="m289.9995 168.3578l0 0c0 -12.060638 9.777069 -21.837708 21.837708 -21.837708l87.348206 0l0 0c5.7917175 0 11.346222 2.3007507 15.441589 6.396118c4.0953674 4.0953674 6.396118 9.649872 6.396118 15.441589l0 203.2852c0 12.060638 -9.777069 21.837708 -21.837708 21.837708l-87.348206 0c-12.060638 0 -21.837708 -9.777069 -21.837708 -21.837708z" fill-rule="evenodd"></path><path stroke="#000000" stroke-width="1.0" stroke-linejoin="round" stroke-linecap="butt" d="m289.9995 168.3578l0 0c0 -12.060638 9.777069 -21.837708 21.837708 -21.837708l87.348206 0l0 0c5.7917175 0 11.346222 2.3007507 15.441589 6.396118c4.0953674 4.0953674 6.396118 9.649872 6.396118 15.441589l0 203.2852c0 12.060638 -9.777069 21.837708 -21.837708 21.837708l-87.348206 0c-12.060638 0 -21.837708 -9.777069 -21.837708 -21.837708z" fill-rule="evenodd"></path><defs><linearGradient id="p.1" gradientUnits="userSpaceOnUse" gradientTransform="matrix(15.714995745813741 0.0 0.0 15.714995745813741 0.0 0.0)" spreadMethod="pad" x1="19.217344822153898" y1="9.323503228138229" x2="19.217288714870378" y2="25.038498973851816"><stop offset="0.0" stop-color="#db0000"></stop><stop offset="1.0" stop-color="#540303"></stop></linearGradient></defs><path fill="url(#p.1)" d="m302.0005 167.85303l0 0c0 -11.782303 9.551453 -21.333755 21.33377 -21.333755l85.33246 0l0 0c5.658081 0 11.084412 2.2476654 15.085266 6.24852c4.0008545 4.0008545 6.2485046 9.427185 6.2485046 15.085236l0 204.29312c0 11.782318 -9.551453 21.33377 -21.33377 21.33377l-85.33246 0c-11.782318 0 -21.33377 -9.551453 -21.33377 -21.33377z" fill-rule="evenodd"></path><path stroke="#000000" stroke-width="1.0" stroke-linejoin="round" stroke-linecap="butt" d="m302.0005 167.85303l0 0c0 -11.782303 9.551453 -21.333755 21.33377 -21.333755l85.33246 0l0 0c5.658081 0 11.084412 2.2476654 15.085266 6.24852c4.0008545 4.0008545 6.2485046 9.427185 6.2485046 15.085236l0 204.29312c0 11.782318 -9.551453 21.33377 -21.33377 21.33377l-85.33246 0c-11.782318 0 -21.33377 -9.551453 -21.33377 -21.33377z" fill-rule="evenodd"></path><path fill="#666666" d="m289.9995 168.3578l0 0c0 -12.060638 9.777069 -21.837708 21.837708 -21.837708l87.348206 0l0 0c5.7917175 0 11.346222 2.3007507 15.441589 6.396118c4.0953674 4.0953674 6.396118 9.649872 6.396118 15.441589l0 203.2852c0 12.060638 -9.777069 21.837708 -21.837708 21.837708l-87.348206 0c-12.060638 0 -21.837708 -9.777069 -21.837708 -21.837708z" fill-rule="evenodd"></path><path stroke="#000000" stroke-width="1.0" stroke-linejoin="round" stroke-linecap="butt" d="m289.9995 168.3578l0 0c0 -12.060638 9.777069 -21.837708 21.837708 -21.837708l87.348206 0l0 0c5.7917175 0 11.346222 2.3007507 15.441589 6.396118c4.0953674 4.0953674 6.396118 9.649872 6.396118 15.441589l0 203.2852c0 12.060638 -9.777069 21.837708 -21.837708 21.837708l-87.348206 0c-12.060638 0 -21.837708 -9.777069 -21.837708 -21.837708z" fill-rule="evenodd"></path><path fill="#000000" d="m296.50443 175.16534l0 0c0 -10.863281 8.806427 -19.669693 19.669678 -19.669693l78.67639 0l0 0c5.2167053 0 10.219788 2.072342 13.908569 5.7611237c3.6887817 3.6887817 5.7611084 8.6918335 5.7611084 13.908569l0 189.66849c0 10.863281 -8.806427 19.669708 -19.669678 19.669708l-78.67639 0c-10.863251 0 -19.669678 -8.806427 -19.669678 -19.669708z" fill-rule="evenodd"></path><path stroke="#000000" stroke-width="1.0" stroke-linejoin="round" stroke-linecap="butt" d="m296.50443 175.16534l0 0c0 -10.863281 8.806427 -19.669693 19.669678 -19.669693l78.67639 0l0 0c5.2167053 0 10.219788 2.072342 13.908569 5.7611237c3.6887817 3.6887817 5.7611084 8.6918335 5.7611084 13.908569l0 189.66849c0 10.863281 -8.806427 19.669708 -19.669678 19.669708l-78.67639 0c-10.863251 0 -19.669678 -8.806427 -19.669678 -19.669708z" fill-rule="evenodd"></path><path fill="#000000" fill-opacity="0.0" d="m421.0241 166.33029l8.535431 -2.2992096" fill-rule="evenodd"></path><path stroke="#000000" stroke-width="1.0" stroke-linejoin="round" stroke-linecap="butt" d="m421.0241 166.33029l8.535431 -2.2992096" fill-rule="evenodd"></path><path fill="#000000" fill-opacity="0.0" d="m418.98212 381.3303l10.708649 -6.173218" fill-rule="evenodd"></path><path stroke="#000000" stroke-width="1.0" stroke-linejoin="round" stroke-linecap="butt" d="m418.98212 381.3303l10.708649 -6.173218" fill-rule="evenodd"></path><defs><radialGradient id="p.2" gradientUnits="userSpaceOnUse" gradientTransform="matrix(-5.69905448319208 -1.4099992307809914 1.4099992307809914 -5.69905448319208 0.0 0.0)" spreadMethod="pad" cx="-71.73565949233063" cy="-28.615492234096898" fx="-71.73565949233063" fy="-28.615492234096898" r="5.699054718017578"><stop offset="0.0" stop-color="#db0000"></stop><stop offset="1.0" stop-color="#540303"></stop></radialGradient></defs><path fill="url(#p.2)" d="m351.9242 241.67314c9.714386 -6.1795197 22.214996 -4.944763 30.440948 3.006836c8.225952 7.951599 10.112152 20.623764 4.59317 30.85875c-5.518982 10.234985 -17.057617 15.463257 -28.098358 12.731659z" fill-rule="evenodd"></path><path stroke="#000000" stroke-width="1.0" stroke-linejoin="round" stroke-linecap="butt" d="m351.9242 241.67314c9.714386 -6.1795197 22.214996 -4.944763 30.440948 3.006836c8.225952 7.951599 10.112152 20.623764 4.59317 30.85875c-5.518982 10.234985 -17.057617 15.463257 -28.098358 12.731659z" fill-rule="evenodd"></path><path fill="#ffffff" d="m328.52017 263.82373l0 0c0 -14.907333 12.084778 -26.992126 26.992126 -26.992126l0 0c7.1587524 0 14.0243225 2.843811 19.086304 7.9058228c5.0620117 5.0619965 7.9058228 11.927551 7.9058228 19.086304l0 0c0 14.907349 -12.084778 26.992126 -26.992126 26.992126l0 0c-14.907349 0 -26.992126 -12.084778 -26.992126 -26.992126z" fill-rule="evenodd"></path><path stroke="#000000" stroke-width="1.0" stroke-linejoin="round" stroke-linecap="butt" d="m328.52017 263.82373l0 0c0 -14.907333 12.084778 -26.992126 26.992126 -26.992126l0 0c7.1587524 0 14.0243225 2.843811 19.086304 7.9058228c5.0620117 5.0619965 7.9058228 11.927551 7.9058228 19.086304l0 0c0 14.907349 -12.084778 26.992126 -26.992126 26.992126l0 0c-14.907349 0 -26.992126 -12.084778 -26.992126 -26.992126z" fill-rule="evenodd"></path><defs><radialGradient id="p.3" gradientUnits="userSpaceOnUse" gradientTransform="matrix(4.2245876787694 0.0 0.0 4.2245876787694 0.0 0.0)" spreadMethod="pad" cx="84.15313521585814" cy="62.4495824311522" fx="84.15313521585814" fy="62.4495824311522" r="4.224587440490723"><stop offset="0.0" stop-color="#dcecd5"></stop><stop offset="1.0" stop-color="#93bc81"></stop></radialGradient></defs><path fill="url(#p.3)" d="m342.52017 263.82373l0 0c0 -6.7578735 5.8167725 -12.236221 12.992126 -12.236221l0 0c3.4457397 0 6.7503357 1.2891693 9.186829 3.583908c2.436493 2.2947388 3.8052979 5.407074 3.8052979 8.652313l0 0c0 6.7578735 -5.8167725 12.236237 -12.992126 12.236237l0 0c-7.175354 0 -12.992126 -5.478363 -12.992126 -12.236237z" fill-rule="evenodd"></path><path stroke="#000000" stroke-width="1.0" stroke-linejoin="round" stroke-linecap="butt" d="m342.52017 263.82373l0 0c0 -6.7578735 5.8167725 -12.236221 12.992126 -12.236221l0 0c3.4457397 0 6.7503357 1.2891693 9.186829 3.583908c2.436493 2.2947388 3.8052979 5.407074 3.8052979 8.652313l0 0c0 6.7578735 -5.8167725 12.236237 -12.992126 12.236237l0 0c-7.175354 0 -12.992126 -5.478363 -12.992126 -12.236237z" fill-rule="evenodd"></path><defs><radialGradient id="p.4" gradientUnits="userSpaceOnUse" gradientTransform="matrix(3.0181628644527367 0.0 0.0 3.0181628644527367 0.0 0.0)" spreadMethod="pad" cx="117.79095898033731" cy="87.41202788961391" fx="117.79095898033731" fy="87.41202788961391" r="3.018162965774536"><stop offset="0.0" stop-color="#696969"></stop><stop offset="1.0" stop-color="#1d1d1d"></stop></radialGradient></defs><path fill="url(#p.4)" d="m349.13434 263.82373l0 0c0 -3.5920105 2.8554993 -6.503937 6.37796 -6.503937l0 0c1.6915283 0 3.3137817 0.6852417 4.5098877 1.9049683c1.196106 1.2197266 1.8680725 2.8740234 1.8680725 4.5989685l0 0c0 3.592041 -2.8555298 6.503937 -6.37796 6.503937l0 0c-3.522461 0 -6.37796 -2.9118958 -6.37796 -6.503937z" fill-rule="evenodd"></path><path stroke="#000000" stroke-width="1.0" stroke-linejoin="round" stroke-linecap="butt" d="m349.13434 263.82373l0 0c0 -3.5920105 2.8554993 -6.503937 6.37796 -6.503937l0 0c1.6915283 0 3.3137817 0.6852417 4.5098877 1.9049683c1.196106 1.2197266 1.8680725 2.8740234 1.8680725 4.5989685l0 0c0 3.592041 -2.8555298 6.503937 -6.37796 6.503937l0 0c-3.522461 0 -6.37796 -2.9118958 -6.37796 -6.503937z" fill-rule="evenodd"></path><path fill="#000000" fill-opacity="0.0" d="m343.40207 263.82373l0 0c0 -6.7578735 5.421936 -12.236221 12.1102295 -12.236221l0 0c3.2118225 0 6.2921143 1.2891693 8.563232 3.583908c2.2711182 2.2947388 3.546997 5.407074 3.546997 8.652313l0 0c0 6.7578735 -5.421936 12.236237 -12.1102295 12.236237l0 0c-6.6882935 0 -12.1102295 -5.478363 -12.1102295 -12.236237z" fill-rule="evenodd"></path><path stroke="#5b0f00" stroke-width="1.0" stroke-linejoin="round" stroke-linecap="butt" d="m343.40207 263.82373l0 0c0 -6.7578735 5.421936 -12.236221 12.1102295 -12.236221l0 0c3.2118225 0 6.2921143 1.2891693 8.563232 3.583908c2.2711182 2.2947388 3.546997 5.407074 3.546997 8.652313l0 0c0 6.7578735 -5.421936 12.236237 -12.1102295 12.236237l0 0c-6.6882935 0 -12.1102295 -5.478363 -12.1102295 -12.236237z" fill-rule="evenodd"></path><path fill="#000000" fill-opacity="0.0" d="m364.07553 272.47604l0 0" fill-rule="evenodd"></path><path stroke="#000000" stroke-width="1.0" stroke-linejoin="round" stroke-linecap="butt" d="m364.07553 272.47604l0 0" fill-rule="evenodd"></path><path fill="#000000" fill-opacity="0.0" d="m364.07553 272.47604l0 0" fill-rule="evenodd"></path><path stroke="#000000" stroke-width="1.0" stroke-linejoin="round" stroke-linecap="butt" d="m364.07553 272.47604l0 0" fill-rule="evenodd"></path><path fill="#000000" fill-opacity="0.0" d="m364.07553 272.47604l-17.13385 -17.291336" fill-rule="evenodd"></path><path stroke="#38761d" stroke-width="1.0" stroke-linejoin="round" stroke-linecap="butt" d="m364.07553 272.47604l-17.13385 -17.291336" fill-rule="evenodd"></path><path fill="#000000" fill-opacity="0.0" d="m364.07553 255.17142l-17.13385 17.291351" fill-rule="evenodd"></path><path stroke="#38761d" stroke-width="1.0" stroke-linejoin="round" stroke-linecap="butt" d="m364.07553 255.17142l-17.13385 17.291351" fill-rule="evenodd"></path><path fill="#000000" fill-opacity="0.0" d="m343.40207 263.82373l24.220459 0" fill-rule="evenodd"></path><path stroke="#6aa84f" stroke-width="1.0" stroke-linejoin="round" stroke-linecap="butt" d="m343.40207 263.82373l24.220459 0" fill-rule="evenodd"></path><path fill="#000000" fill-opacity="0.0" d="m355.5123 276.05997l0 -24.472458" fill-rule="evenodd"></path><path stroke="#6aa84f" stroke-width="1.0" stroke-linejoin="round" stroke-linecap="butt" d="m355.5123 276.05997l0 -24.472458" fill-rule="evenodd"></path><defs><radialGradient id="p.5" gradientUnits="userSpaceOnUse" gradientTransform="matrix(3.0181628644527367 0.0 0.0 3.0181628644527367 0.0 0.0)" spreadMethod="pad" cx="117.79095898033731" cy="87.40941901259114" fx="117.79095898033731" fy="87.40941901259114" r="3.018162965774536"><stop offset="0.0" stop-color="#696969"></stop><stop offset="1.0" stop-color="#1d1d1d"></stop></radialGradient></defs><path fill="url(#p.5)" d="m349.13434 263.81586l0 0c0 -3.5920105 2.8554993 -6.503937 6.37796 -6.503937l0 0c1.6915283 0 3.3137817 0.6852417 4.5098877 1.9049683c1.196106 1.2197266 1.8680725 2.8740234 1.8680725 4.5989685l0 0c0 3.592041 -2.8555298 6.503937 -6.37796 6.503937l0 0c-3.522461 0 -6.37796 -2.9118958 -6.37796 -6.503937z" fill-rule="evenodd"></path><path stroke="#000000" stroke-width="1.0" stroke-linejoin="round" stroke-linecap="butt" d="m349.13434 263.81586l0 0c0 -3.5920105 2.8554993 -6.503937 6.37796 -6.503937l0 0c1.6915283 0 3.3137817 0.6852417 4.5098877 1.9049683c1.196106 1.2197266 1.8680725 2.8740234 1.8680725 4.5989685l0 0c0 3.592041 -2.8555298 6.503937 -6.37796 6.503937l0 0c-3.522461 0 -6.37796 -2.9118958 -6.37796 -6.503937z" fill-rule="evenodd"></path><path fill="#000000" fill-opacity="0.0" d="m335.5123 280.05997c2.2519531 0 3.3779602 -1.0 4.503937 -2.0c1.1259766 -1.0 2.2519531 -2.0 4.503937 -2.0" fill-rule="evenodd"></path><path stroke="#e06666" stroke-width="1.0" stroke-linejoin="round" stroke-linecap="butt" d="m335.5123 280.05997c2.2519531 0 3.3779602 -1.0 4.503937 -2.0c1.1259766 -1.0 2.2519531 -2.0 4.503937 -2.0" fill-rule="evenodd"></path><path fill="#000000" fill-opacity="0.0" d="m349.5123 296.05997c2.2519531 0 3.3779602 -1.0 4.503937 -2.0c1.1259766 -1.0 2.2519531 -2.0 4.503937 -2.0" fill-rule="evenodd"></path><path stroke="#000000" stroke-width="1.0" stroke-linejoin="round" stroke-linecap="butt" d="m349.5123 296.05997c2.2519531 0 3.3779602 -1.0 4.503937 -2.0c1.1259766 -1.0 2.2519531 -2.0 4.503937 -2.0" fill-rule="evenodd"></path><path fill="#000000" fill-opacity="0.0" d="m367.62253 251.58751c2.2519836 0 3.3779602 -1.0 4.503937 -2.0c1.1259766 -1.0 2.2519836 -2.0 4.503937 -2.0" fill-rule="evenodd"></path><path stroke="#ea9999" stroke-width="1.0" stroke-linejoin="round" stroke-linecap="butt" d="m367.62253 251.58751c2.2519836 0 3.3779602 -1.0 4.503937 -2.0c1.1259766 -1.0 2.2519836 -2.0 4.503937 -2.0" fill-rule="evenodd"></path><path fill="#000000" fill-opacity="0.0" d="m342.74063 241.57964c1.3779602 0 2.0669556 1.0630035 2.7559204 2.1259918c0.68896484 1.0629883 1.3779602 2.1259766 2.75589 2.1259766" fill-rule="evenodd"></path><path stroke="#cc0000" stroke-width="1.0" stroke-linejoin="round" stroke-linecap="butt" d="m342.74063 241.57964c1.3779602 0 2.0669556 1.0630035 2.7559204 2.1259918c0.68896484 1.0629883 1.3779602 2.1259766 2.75589 2.1259766" fill-rule="evenodd"></path><path fill="#000000" fill-opacity="0.0" d="m362.4913 238.33029c0 1.2519684 0.81103516 1.8779602 1.6220398 2.5039368c0.81103516 0.6259918 1.6220398 1.2519684 1.6220398 2.5039368" fill-rule="evenodd"></path><path stroke="#e06666" stroke-width="1.0" stroke-linejoin="round" stroke-linecap="butt" d="m362.4913 238.33029c0 1.2519684 0.81103516 1.8779602 1.6220398 2.5039368c0.81103516 0.6259918 1.6220398 1.2519684 1.6220398 2.5039368" fill-rule="evenodd"></path><path fill="#000000" fill-opacity="0.0" d="m330.74063 256.57965c1.8110352 0 2.7165527 -1.0000153 3.6220703 -2.0000153c0.90548706 -1.0 1.8110046 -2.0 3.6220398 -2.0" fill-rule="evenodd"></path><path stroke="#e06666" stroke-width="1.0" stroke-linejoin="round" stroke-linecap="butt" d="m330.74063 256.57965c1.8110352 0 2.7165527 -1.0000153 3.6220703 -2.0000153c0.90548706 -1.0 1.8110046 -2.0 3.6220398 -2.0" fill-rule="evenodd"></path><path fill="#000000" fill-opacity="0.0" d="m389.36432 262.70517c1.9431152 0.50527954 8.704895 -2.6105042 11.658783 3.0317993c2.9538574 5.642273 10.184082 22.147858 6.0644226 30.82196c-4.11969 8.674103 -24.719208 12.211182 -30.78241 21.222595c-6.063202 9.011414 -1.9431458 21.981659 -5.5968018 32.845825c-3.6536865 10.864166 -13.60437 26.94934 -16.325226 32.339203" fill-rule="evenodd"></path><path stroke="#990000" stroke-width="3.0" stroke-linejoin="round" stroke-linecap="butt" d="m389.36432 262.70517c1.9431152 0.50527954 8.704895 -2.6105042 11.658783 3.0317993c2.9538574 5.642273 10.184082 22.147858 6.0644226 30.82196c-4.11969 8.674103 -24.719208 12.211182 -30.78241 21.222595c-6.063202 9.011414 -1.9431458 21.981659 -5.5968018 32.845825c-3.6536865 10.864166 -13.60437 26.94934 -16.325226 32.339203" fill-rule="evenodd"></path><path fill="#000000" fill-opacity="0.0" d="m330.4913 272.08096c0 -1.5039368 1.2519531 -2.2559204 2.5039368 -3.0078735c1.2519531 -0.75198364 2.5039368 -1.5039368 2.5039368 -3.0078735" fill-rule="evenodd"></path><path stroke="#cc0000" stroke-width="1.0" stroke-linejoin="round" stroke-linecap="butt" d="m330.4913 272.08096c0 -1.5039368 1.2519531 -2.2559204 2.5039368 -3.0078735c1.2519531 -0.75198364 2.5039368 -1.5039368 2.5039368 -3.0078735" fill-rule="evenodd"></path><path fill="#000000" fill-opacity="0.0" d="m348.4913 289.08096c0 -2.314972 0.5590515 -3.4724426 1.118103 -4.629944c0.5590515 -1.1574707 1.118103 -2.3149414 1.118103 -4.6299133" fill-rule="evenodd"></path><path stroke="#cc0000" stroke-width="1.0" stroke-linejoin="round" stroke-linecap="butt" d="m348.4913 289.08096c0 -2.314972 0.5590515 -3.4724426 1.118103 -4.629944c0.5590515 -1.1574707 1.118103 -2.3149414 1.118103 -4.6299133" fill-rule="evenodd"></path><path fill="#000000" fill-opacity="0.0" d="m367.74063 287.8316c0 -1.5590515 -1.0629883 -2.338562 -2.1259766 -3.118103c-1.0629883 -0.779541 -2.1259766 -1.5590515 -2.1259766 -3.118103" fill-rule="evenodd"></path><path stroke="#cc0000" stroke-width="1.0" stroke-linejoin="round" stroke-linecap="butt" d="m367.74063 287.8316c0 -1.5590515 -1.0629883 -2.338562 -2.1259766 -3.118103c-1.0629883 -0.779541 -2.1259766 -1.5590515 -2.1259766 -3.118103" fill-rule="evenodd"></path><path fill="#000000" fill-opacity="0.0" d="m379.99 274.3303c-2.314972 0 -3.4724426 -0.9370117 -4.6299133 -1.8740234c-1.1575012 -0.9369812 -2.314972 -1.8739929 -4.629944 -1.8739929" fill-rule="evenodd"></path><path stroke="#e06666" stroke-width="1.0" stroke-linejoin="round" stroke-linecap="butt" d="m379.99 274.3303c-2.314972 0 -3.4724426 -0.9370117 -4.6299133 -1.8740234c-1.1575012 -0.9369812 -2.314972 -1.8739929 -4.629944 -1.8739929" fill-rule="evenodd"></path><path fill="#000000" fill-opacity="0.0" d="m380.99 257.8316c-1.9370117 0 -2.9055176 0.9370117 -3.8740234 1.8740234c-0.96850586 0.9370117 -1.9370117 1.8740234 -3.8740234 1.8740234" fill-rule="evenodd"></path><path stroke="#cc0000" stroke-width="1.0" stroke-linejoin="round" stroke-linecap="butt" d="m380.99 257.8316c-1.9370117 0 -2.9055176 0.9370117 -3.8740234 1.8740234c-0.96850586 0.9370117 -1.9370117 1.8740234 -3.8740234 1.8740234" fill-rule="evenodd"></path><defs><linearGradient id="p.6" gradientUnits="userSpaceOnUse" gradientTransform="matrix(7.347411586491723 0.0 0.0 7.347411586491723 0.0 0.0)" spreadMethod="pad" x1="44.746662385668124" y1="32.23152530555214" x2="44.7466372683541" y2="39.57893689200093"><stop offset="0.0" stop-color="#db0000"></stop><stop offset="1.0" stop-color="#540303"></stop></linearGradient></defs><path fill="url(#p.6)" d="m328.77216 263.8106l0 0c0 -14.907333 12.084778 -26.992126 26.992096 -26.992126l0 0c7.158783 0 14.0243225 2.843811 19.086334 7.9058228c5.0620117 5.0619965 7.905792 11.927551 7.905792 19.086304l0 0c0 14.907349 -12.084778 26.992126 -26.992126 26.992126l0 0c-14.907318 0 -26.992096 -12.084778 -26.992096 -26.992126zm3.7151794 0l0 0c0 12.855499 10.421448 23.276947 23.276917 23.276947c12.855499 0 23.276947 -10.421448 23.276947 -23.276947l0 0c0 -12.855484 -10.421448 -23.276932 -23.276947 -23.276932l0 0c-12.855469 0 -23.276917 10.421448 -23.276917 23.276932z" fill-rule="evenodd"></path><path fill="#000000" fill-opacity="0.0" d="m333.99 248.20432c0 1.9370117 1.4409485 2.9055176 2.881897 3.8740082c1.4409485 0.96850586 2.8818665 1.9370117 2.8818665 3.8740234" fill-rule="evenodd"></path><path stroke="#e06666" stroke-width="1.0" stroke-linejoin="round" stroke-linecap="butt" d="m333.99 248.20432c0 1.9370117 1.4409485 2.9055176 2.881897 3.8740082c1.4409485 0.96850586 2.8818665 1.9370117 2.8818665 3.8740234" fill-rule="evenodd"></path><path fill="#000000" fill-opacity="0.0" d="m360.74063 237.57964c0 2.346466 -0.7165222 3.5196838 -1.4330444 4.692917c-0.71655273 1.173233 -1.433075 2.346466 -1.433075 4.692917" fill-rule="evenodd"></path><path stroke="#e06666" stroke-width="1.0" stroke-linejoin="round" stroke-linecap="butt" d="m360.74063 237.57964c0 2.346466 -0.7165222 3.5196838 -1.4330444 4.692917c-0.71655273 1.173233 -1.433075 2.346466 -1.433075 4.692917" fill-rule="evenodd"></path><defs><linearGradient id="p.7" gradientUnits="userSpaceOnUse" gradientTransform="matrix(7.347411586491723 0.0 0.0 7.347411586491723 0.0 0.0)" spreadMethod="pad" x1="44.746662385668124" y1="32.23152530555214" x2="44.7466372683541" y2="39.57893689200093"><stop offset="0.0" stop-color="#f5d0d0"></stop><stop offset="1.0" stop-color="#d96868"></stop></linearGradient></defs><path fill="url(#p.7)" d="m328.77216 263.8106l0 0c0 -14.907333 12.084778 -26.992126 26.992096 -26.992126l0 0c7.158783 0 14.0243225 2.843811 19.086334 7.9058228c5.0620117 5.0619965 7.905792 11.927551 7.905792 19.086304l0 0c0 14.907349 -12.084778 26.992126 -26.992126 26.992126l0 0c-14.907318 0 -26.992096 -12.084778 -26.992096 -26.992126zm2.6986694 0l0 0c0 13.416901 10.876526 24.293457 24.293427 24.293457c13.416931 0 24.293457 -10.876556 24.293457 -24.293457l0 0c0 -13.416901 -10.876526 -24.293442 -24.293457 -24.293442l0 0c-13.416901 0 -24.293427 10.876541 -24.293427 24.293442z" fill-rule="evenodd"></path><path fill="#000000" fill-opacity="0.0" d="m355.5118 409.4987c0 26.874023 23.37796 40.311035 46.75592 53.748016c23.37793 13.437012 46.75589 26.874023 46.75589 53.748047" fill-rule="evenodd"></path><path stroke="#000000" stroke-width="3.0" stroke-linejoin="round" stroke-linecap="butt" d="m355.5118 409.4987c0 26.874023 23.37796 40.311035 46.75592 53.748016c23.37793 13.437012 46.75589 26.874023 46.75589 53.748047" fill-rule="evenodd"></path><path fill="#434343" d="m364.25186 418.17584l-8.503876 0.020996094l0 0c-0.5638428 0.0014038086 -1.1046143 -0.22125244 -1.5033264 -0.61898804c-0.39871216 -0.39770508 -0.62268066 -0.93792725 -0.62268066 -1.50177l0 -22.37793c0 -6.1035156E-5 3.0517578E-5 -9.1552734E-5 9.1552734E-5 -9.1552734E-5l12.755798 -0.031402588l0 0c6.1035156E-5 0 1.2207031E-4 6.1035156E-5 1.2207031E-4 1.2207031E-4l-1.2207031E-4 22.377777l0 0c0 1.1741943 -0.95184326 2.1283875 -2.126007 2.1312866z" fill-rule="evenodd"></path><path stroke="#000000" stroke-width="1.0" stroke-linejoin="round" stroke-linecap="butt" d="m364.25186 418.17584l-8.503876 0.020996094l0 0c-0.5638428 0.0014038086 -1.1046143 -0.22125244 -1.5033264 -0.61898804c-0.39871216 -0.39770508 -0.62268066 -0.93792725 -0.62268066 -1.50177l0 -22.37793c0 -6.1035156E-5 3.0517578E-5 -9.1552734E-5 9.1552734E-5 -9.1552734E-5l12.755798 -0.031402588l0 0c6.1035156E-5 0 1.2207031E-4 6.1035156E-5 1.2207031E-4 1.2207031E-4l-1.2207031E-4 22.377777l0 0c0 1.1741943 -0.95184326 2.1283875 -2.126007 2.1312866z" fill-rule="evenodd"></path><path fill="#434343" d="m359.76367 418.17584l-8.503876 0.020996094l0 0c-0.5638428 0.0014038086 -1.1046143 -0.22125244 -1.5033264 -0.61898804c-0.39871216 -0.39770508 -0.62268066 -0.93792725 -0.62268066 -1.50177l0 -22.37793c0 -6.1035156E-5 3.0517578E-5 -9.1552734E-5 9.1552734E-5 -9.1552734E-5l12.755798 -0.031402588l0 0c6.1035156E-5 0 1.2207031E-4 6.1035156E-5 1.2207031E-4 1.2207031E-4l-1.2207031E-4 22.377777l0 0c0 1.1741943 -0.95184326 2.1283875 -2.126007 2.1312866z" fill-rule="evenodd"></path><path stroke="#000000" stroke-width="1.0" stroke-linejoin="round" stroke-linecap="butt" d="m359.76367 418.17584l-8.503876 0.020996094l0 0c-0.5638428 0.0014038086 -1.1046143 -0.22125244 -1.5033264 -0.61898804c-0.39871216 -0.39770508 -0.62268066 -0.93792725 -0.62268066 -1.50177l0 -22.37793c0 -6.1035156E-5 3.0517578E-5 -9.1552734E-5 9.1552734E-5 -9.1552734E-5l12.755798 -0.031402588l0 0c6.1035156E-5 0 1.2207031E-4 6.1035156E-5 1.2207031E-4 1.2207031E-4l-1.2207031E-4 22.377777l0 0c0 1.1741943 -0.95184326 2.1283875 -2.126007 2.1312866z" fill-rule="evenodd"></path><path fill="#cfe2f3" d="m719.0 536.0l96.0 0l0 96.0l-96.0 0z" fill-rule="evenodd"></path><path stroke="#000000" stroke-width="1.0" stroke-linejoin="round" stroke-linecap="butt" d="m719.0 536.0l96.0 0l0 96.0l-96.0 0z" fill-rule="evenodd"></path></g></svg>

